<?xml version="1.0" standalone="no"?>
<!DOCTYPE svg PUBLIC "-//W3C//DTD SVG 20010904//EN"
 "http://www.w3.org/TR/2001/REC-SVG-20010904/DTD/svg10.dtd">
<svg version="1.0" xmlns="http://www.w3.org/2000/svg"
 width="260.000000pt" height="260.000000pt" viewBox="0 0 260.000000 260.000000"
 preserveAspectRatio="xMidYMid meet">
<metadata>
Created by potrace 1.11, written by Peter Selinger 2001-2013
</metadata>
<g transform="translate(0.000000,260.000000) scale(0.100000,-0.100000)"
fill="#000000" stroke="none">
<path d="M1246 2345 c-14 -13 -26 -28 -26 -34 0 -5 -4 -11 -8 -13 -10 -4 -102
-189 -102 -206 0 -7 -4 -12 -10 -12 -5 0 -9 -3 -8 -7 1 -5 -4 -19 -9 -33 -19
-45 -34 -85 -32 -85 1 0 -9 -18 -23 -40 -22 -37 -37 -68 -38 -80 0 -3 -12 -19
-27 -36 -16 -17 -27 -35 -26 -40 3 -9 -54 -43 -72 -44 -5 -1 -25 -9 -42 -18
-21 -11 -33 -13 -33 -6 0 7 -9 5 -25 -5 -14 -9 -25 -12 -25 -7 0 6 -14 8 -32
5 -18 -3 -61 -6 -95 -7 -34 -1 -65 -5 -69 -9 -13 -13 -36 -9 -28 5 6 9 4 9 -7
1 -8 -6 -29 -11 -48 -12 -18 -2 -41 -7 -51 -12 -12 -6 -20 -6 -22 0 -2 5 -27
-1 -55 -15 -29 -13 -53 -20 -53 -14 0 17 -48 -21 -54 -44 -5 -19 7 -45 38 -85
11 -14 95 -95 175 -170 194 -181 247 -245 260 -316 5 -25 7 -47 5 -48 -2 -2
-6 -28 -10 -58 -9 -75 -12 -95 -14 -95 -2 0 -6 -20 -14 -65 -4 -19 -9 -42 -12
-51 -2 -10 -6 -31 -9 -48 -2 -17 -6 -38 -9 -48 -21 -67 -31 -221 -15 -249 11
-21 10 -27 -5 -42 -16 -16 -17 -16 -11 0 5 13 2 15 -17 11 -13 -3 -29 -11 -37
-17 -11 -8 -13 -8 -7 2 9 16 -16 16 -32 0 -9 -9 -12 -9 -12 2 0 9 -6 8 -21 -6
-11 -10 -19 -14 -17 -9 3 10 -6 16 -19 14 -12 -3 -73 -7 -128 -9 -27 -1 -58
-6 -67 -12 -11 -5 -18 -5 -18 1 0 11 -39 9 -58 -3 -7 -4 -16 -5 -21 -2 -5 3
-21 -6 -35 -21 -20 -20 -24 -28 -14 -35 10 -6 10 -8 -2 -8 -8 -1 7 -12 35 -26
27 -13 57 -24 65 -23 8 1 26 -3 40 -8 14 -6 28 -9 32 -6 4 2 16 -1 27 -7 13
-7 22 -7 26 0 3 5 11 10 16 10 6 0 8 -3 6 -8 -7 -10 105 -9 122 2 9 6 12 5 8
-1 -4 -6 4 -10 18 -10 14 0 25 5 25 11 0 6 4 5 9 -3 7 -10 13 -11 31 -1 13 7
20 8 16 2 -4 -6 1 -10 11 -10 26 1 116 -12 122 -17 2 -3 10 0 18 6 7 6 13 7
13 2 0 -4 25 -9 55 -9 30 0 52 2 50 5 -2 4 5 7 15 7 10 0 16 -4 13 -9 -3 -5
15 -7 41 -4 25 2 50 0 57 -3 6 -4 26 -4 45 0 19 4 34 5 34 0 0 -9 64 -5 81 5
8 5 10 4 5 -3 -4 -7 -3 -12 3 -12 5 0 13 4 16 10 3 5 11 10 16 10 6 0 8 -4 5
-9 -4 -5 19 -7 52 -6 32 2 64 0 71 -4 9 -6 27 -1 50 12 26 16 33 17 23 5 -12
-14 -7 -16 45 -16 32 0 66 5 77 10 13 7 16 7 11 -2 -5 -8 5 -10 34 -6 22 2 45
7 50 11 6 3 11 2 11 -2 0 -7 125 -10 140 -3 14 6 36 4 42 -5 5 -6 8 -5 8 3 0
8 8 10 24 6 14 -3 38 2 57 12 28 14 32 14 21 2 -11 -14 -9 -16 21 -14 18 1 38
6 44 9 6 4 19 4 29 0 11 -4 15 -3 10 5 -3 6 -1 14 5 18 7 4 9 3 5 -4 -10 -17
11 -24 35 -11 14 7 19 7 15 0 -4 -6 6 -8 31 -5 21 3 48 5 61 5 13 -1 38 7 55
16 31 16 31 15 17 -2 -12 -15 -12 -17 -1 -10 8 4 37 9 65 11 28 1 51 3 51 4 0
1 18 4 40 6 44 4 102 31 110 52 3 8 0 21 -6 28 -18 22 -77 47 -94 40 -9 -3
-13 -2 -10 4 4 6 -8 10 -27 11 -78 2 -107 5 -113 11 -4 3 -20 2 -36 -2 -16 -5
-29 -5 -29 0 0 5 -27 7 -60 6 -33 -2 -63 1 -67 6 -3 6 -8 6 -12 2 -3 -5 -17
-15 -31 -23 -24 -13 -24 -13 -10 4 14 17 12 17 -21 14 -36 -5 -46 8 -24 28 4
4 5 2 1 -4 -4 -7 -3 -13 3 -13 11 0 22 48 22 100 0 35 -7 105 -11 105 -2 0 -9
32 -14 70 -3 17 -7 37 -10 45 -3 8 -8 29 -11 45 -3 17 -8 39 -10 50 -3 11 -6
32 -9 47 -2 15 -6 30 -9 35 -7 12 -20 143 -18 182 1 19 9 49 17 67 16 33 114
135 250 259 115 105 184 177 184 192 0 7 5 13 10 13 6 0 10 7 10 15 0 8 5 15
11 15 14 0 -11 41 -26 42 -5 0 -22 9 -37 20 -20 14 -28 16 -28 6 0 -10 -2 -10
-9 1 -5 7 -14 10 -20 7 -6 -4 -11 -2 -11 5 0 8 -5 7 -17 -2 -9 -8 -14 -9 -10
-2 7 11 -22 21 -63 22 -8 0 -31 3 -50 7 -19 3 -59 6 -87 6 -29 1 -53 4 -53 8
0 9 -32 6 -48 -4 -6 -4 -12 -3 -12 2 0 8 -36 13 -107 15 -18 1 -33 5 -33 10 0
5 -9 7 -20 4 -10 -3 -24 1 -31 9 -6 8 -16 14 -21 14 -16 0 -63 53 -79 88 -7
17 -17 32 -21 32 -5 0 -8 6 -8 14 0 8 -18 53 -40 100 -21 47 -36 86 -33 86 3
0 0 8 -8 18 -8 9 -21 31 -28 47 -50 111 -127 230 -158 244 -30 14 -26 15 -57
-14z m111 -426 c-9 -6 -14 -15 -11 -21 4 -7 2 -8 -5 -4 -14 9 3 36 23 36 6 0
3 -5 -7 -11z m41 -114 c-3 -3 -9 2 -12 12 -6 14 -5 15 5 6 7 -7 10 -15 7 -18z
m-245 -30 c4 -8 1 -17 -5 -21 -7 -4 -8 -3 -4 4 4 7 2 12 -4 12 -6 0 -8 5 -5
10 8 14 12 13 18 -5z m251 -23 c3 -5 -1 -9 -9 -9 -8 0 -12 4 -9 9 3 4 7 8 9 8
2 0 6 -4 9 -8z m62 -85 c1 -7 -8 -14 -20 -14 -19 -2 -19 -1 -3 8 9 6 14 16 11
22 -4 7 -3 8 1 4 5 -4 10 -13 11 -20z m-771 -27 c-3 -5 -11 -10 -16 -10 -6 0
-7 5 -4 10 3 6 11 10 16 10 6 0 7 -4 4 -10z m45 6 c0 -2 -7 -9 -15 -16 -13
-11 -14 -10 -9 4 5 14 24 23 24 12z m685 -6 c3 -5 1 -10 -4 -10 -6 0 -11 5
-11 10 0 6 2 10 4 10 3 0 8 -4 11 -10z m71 -2 c4 -6 3 -8 -4 -4 -6 3 -13 2
-17 -4 -3 -5 -11 -10 -18 -10 -6 0 -2 7 9 15 23 18 21 17 30 3z m424 -3 c7 -9
8 -15 2 -15 -5 0 -12 7 -16 15 -3 8 -4 15 -2 15 2 0 9 -7 16 -15z m-40 1 c0
-2 -8 -10 -17 -17 -16 -13 -17 -12 -4 4 13 16 21 21 21 13z m-1410 -11 c0 -2
-10 -10 -22 -16 -21 -11 -22 -11 -9 4 13 16 31 23 31 12z m100 1 c0 -2 -7 -7
-16 -10 -8 -3 -12 -2 -9 4 6 10 25 14 25 6z m1404 -8 c-3 -4 -11 -5 -19 -1
-21 7 -19 12 4 10 11 0 18 -5 15 -9z m-1474 -2 c0 -2 -7 -7 -16 -10 -8 -3 -12
-2 -9 4 6 10 25 14 25 6z m1670 0 c0 -3 -4 -8 -10 -11 -5 -3 -10 -1 -10 4 0 6
5 11 10 11 6 0 10 -2 10 -4z m-1840 -10 c0 -2 -8 -10 -17 -17 -16 -13 -17 -12
-4 4 13 16 21 21 21 13z m1045 -6 c3 -6 -1 -7 -9 -4 -18 7 -21 14 -7 14 6 0
13 -4 16 -10z m128 -11 c-8 -8 -13 -7 -18 2 -5 8 -4 10 3 5 7 -4 12 -2 12 5 0
7 3 9 7 6 4 -4 2 -12 -4 -18z m-53 -24 c-7 -8 -17 -15 -23 -15 -6 0 -2 7 9 15
25 19 30 19 14 0z m-471 -21 c-6 -8 -17 -14 -23 -14 -6 0 -3 5 7 11 9 6 14 15
11 21 -4 7 -2 8 5 4 9 -6 9 -11 0 -22z m585 18 c2 -4 -4 -8 -15 -8 -10 0 -19
4 -19 8 0 4 6 8 14 8 8 0 17 -4 20 -8z m-809 -12 c-9 -14 -45 -32 -45 -23 0 7
24 22 48 32 2 0 0 -3 -3 -9z m132 -7 c0 -7 -4 -10 -9 -7 -5 3 -21 -2 -36 -11
l-27 -16 22 19 c12 11 20 21 18 24 -2 2 4 4 14 4 10 0 18 -6 18 -13z m47 -1
c-5 -4 -12 -11 -15 -15 -3 -5 -9 -2 -12 5 -3 9 3 14 15 15 11 1 16 -1 12 -5z
m718 -6 c7 4 8 2 4 -4 -4 -6 -13 -9 -21 -6 -8 4 -12 11 -8 17 5 8 8 7 11 -1 2
-7 9 -9 14 -6z m-47 -5 c3 -5 2 -12 -3 -15 -5 -3 -9 1 -9 9 0 17 3 19 12 6z
m285 5 c0 -2 -8 -10 -17 -17 -16 -13 -17 -12 -4 4 13 16 21 21 21 13z m-1190
-20 c0 -2 -7 -6 -15 -10 -8 -3 -15 -1 -15 4 0 6 7 10 15 10 8 0 15 -2 15 -4z
m875 -17 c-4 -5 -12 -9 -18 -8 -9 0 -8 2 1 6 6 2 9 10 6 15 -4 7 -2 8 5 4 6
-4 9 -12 6 -17z m275 10 c0 -5 -4 -7 -10 -4 -5 3 -10 1 -10 -6 0 -7 -3 -10 -6
-6 -8 7 4 27 17 27 5 0 9 -5 9 -11z m181 -18 c-8 -5 -10 -14 -6 -22 6 -11 5
-11 -5 -2 -14 12 -6 33 13 33 8 0 7 -3 -2 -9z m-56 -11 c-3 -5 -16 -15 -28
-21 -19 -9 -19 -8 3 10 28 23 34 26 25 11z m-1571 -19 c3 -5 -2 -15 -12 -22
-15 -12 -16 -12 -5 2 7 9 10 19 6 22 -3 4 -4 7 0 7 3 0 8 -4 11 -9z m1595 5
c-18 -16 -89 -55 -89 -49 0 8 68 50 84 52 5 1 7 -1 5 -3z m11 -51 c0 -2 -10
-9 -22 -15 -22 -11 -22 -10 -4 4 21 17 26 19 26 11z m-1354 -37 c-10 -6 -22
-6 -26 -2 -5 5 3 10 18 11 22 1 24 0 8 -9z m1294 2 c0 -5 -5 -10 -11 -10 -5 0
-7 5 -4 10 3 6 8 10 11 10 2 0 4 -4 4 -10z m-1243 -35 c0 -8 -4 -12 -9 -9 -5
3 -6 10 -3 15 9 13 12 11 12 -6z m-20 -30 c0 -8 -4 -12 -9 -9 -4 3 -8 9 -8 15
0 5 4 9 8 9 5 0 9 -7 9 -15z m173 11 c0 -2 -8 -10 -17 -17 -16 -13 -17 -12 -4
4 13 16 21 21 21 13z m-55 -25 c3 -5 2 -12 -3 -15 -5 -3 -9 1 -9 9 0 17 3 19
12 6z m35 -35 c-6 -6 -22 -11 -35 -11 -13 -1 -22 2 -19 5 3 3 16 5 27 5 13 0
21 5 19 13 -1 8 2 11 9 7 8 -5 8 -10 -1 -19z m-60 -26 c8 -5 11 -10 5 -10 -5
0 -17 5 -25 10 -8 5 -10 10 -5 10 6 0 17 -5 25 -10z m68 -24 c-10 -7 -15 -16
-11 -20 4 -4 -1 -4 -11 0 -17 6 -16 8 5 20 31 17 39 17 17 0z m15 -57 c-8 -8
-13 -7 -18 2 -6 8 -4 10 5 4 10 -6 12 -4 6 11 -6 15 -5 17 5 7 9 -10 10 -16 2
-24z m94 -13 c0 -7 -7 -13 -16 -12 -9 1 -16 -4 -16 -11 0 -6 -3 -14 -7 -18 -3
-4 -5 1 -4 10 1 10 11 24 21 31 23 17 22 17 22 0z m773 4 c0 -5 -8 -10 -17
-10 -15 0 -16 2 -3 10 19 12 20 12 20 0z m0 -54 c0 -2 -7 -7 -16 -10 -8 -3
-12 -2 -9 4 6 10 25 14 25 6z m-30 -30 c0 -2 -7 -7 -16 -10 -8 -3 -12 -2 -9 4
6 10 25 14 25 6z m-797 -41 c-3 -9 -8 -14 -10 -11 -3 3 -2 9 2 15 9 16 15 13
8 -4z m777 0 c-7 -8 -17 -15 -23 -15 -6 0 -2 7 9 15 25 19 30 19 14 0z m-575
-73 c-3 -3 -11 0 -18 7 -9 10 -8 11 6 5 10 -3 15 -9 12 -12z m-100 -32 c-3 -5
-12 -10 -18 -10 -7 0 -6 4 3 10 19 12 23 12 15 0z m-38 -35 c0 -8 -4 -12 -9
-9 -5 3 -6 10 -3 15 9 13 12 11 12 -6z m-22 -14 c3 -5 1 -12 -5 -16 -6 -4 -7
-11 -4 -17 4 -7 2 -8 -5 -4 -9 6 -9 11 -1 21 8 10 7 14 -7 18 -16 4 -16 5 -1
6 9 0 19 -3 23 -8z m-25 -47 c0 -1 -8 -1 -17 0 -10 0 -17 -5 -15 -12 1 -8 -2
-11 -8 -7 -8 5 -7 12 2 23 11 14 10 15 -6 9 -16 -6 -17 -5 -7 7 11 13 15 13
32 -2 10 -9 19 -17 19 -18z m426 -8 c0 -14 -3 -23 -7 -20 -6 3 -6 22 0 42 3
10 7 -2 7 -22z m-61 5 c3 -5 2 -12 -3 -15 -5 -3 -9 1 -9 9 0 17 3 19 12 6z
m-31 -16 c3 -9 -3 -19 -17 -25 -19 -10 -20 -9 -6 2 9 7 14 19 12 26 -6 17 4
15 11 -3z m-390 -3 c3 -5 -1 -9 -9 -9 -8 0 -12 4 -9 9 3 4 7 8 9 8 2 0 6 -4 9
-8z m30 -37 c-10 -8 -23 -14 -29 -14 -5 -1 1 8 15 19 14 10 27 17 29 14 3 -2
-4 -11 -15 -19z m490 -1 c3 -8 2 -12 -4 -9 -6 3 -10 10 -10 16 0 14 7 11 14
-7z m-74 2 c0 -2 -7 -7 -16 -10 -8 -3 -12 -2 -9 4 6 10 25 14 25 6z m-180 -26
c-14 -11 -29 -20 -35 -20 -5 0 4 9 20 20 38 25 48 25 15 0z m330 6 c0 -2 -8
-10 -17 -17 -16 -13 -17 -12 -4 4 13 16 21 21 21 13z m418 -41 c-3 -3 -9 2
-12 12 -6 14 -5 15 5 6 7 -7 10 -15 7 -18z m-898 -29 c0 -2 -7 -7 -16 -10 -8
-3 -12 -2 -9 4 6 10 25 14 25 6z m350 -10 c0 -2 -8 -10 -17 -17 -16 -13 -17
-12 -4 4 13 16 21 21 21 13z m-80 -10 c0 -2 -20 -16 -45 -29 -55 -31 -59 -26
-7 7 36 24 52 31 52 22z m-370 -41 c-30 -19 -58 -35 -64 -35 -14 0 -2 10 51
41 68 40 78 35 13 -6z m271 5 c-13 -11 -18 -20 -12 -20 7 0 9 -5 5 -11 -5 -8
-9 -8 -14 1 -6 9 -13 9 -29 1 -28 -15 -27 -24 2 -16 12 3 4 -5 -18 -19 -68
-42 -97 -58 -101 -53 -2 2 8 10 24 18 42 21 73 47 62 51 -6 2 13 17 42 35 62
37 72 40 39 13z m210 -29 c24 -11 47 -17 51 -15 4 3 8 0 8 -6 0 -6 5 -8 10 -5
6 3 10 3 10 -2 0 -4 15 -14 33 -22 17 -8 34 -17 37 -21 12 -15 72 -52 77 -47
3 3 14 -3 25 -13 12 -10 34 -22 49 -25 16 -4 29 -11 29 -15 0 -5 7 -6 17 -3
10 4 14 2 10 -4 -4 -7 5 -14 23 -18 16 -4 30 -10 30 -15 0 -7 32 -21 55 -24 6
-1 13 -6 18 -13 4 -7 15 -9 25 -6 18 7 17 5 -12 -17 -11 -8 -17 -10 -13 -3 12
19 -118 9 -151 -12 -15 -10 -21 -12 -14 -4 16 17 15 26 -3 26 -8 0 -15 -4 -15
-9 0 -5 -4 -7 -9 -4 -5 4 -12 0 -14 -6 -3 -8 -6 -6 -6 5 -1 10 -6 15 -11 12
-6 -4 -8 -11 -5 -16 4 -5 -5 -5 -20 1 -34 13 -38 13 -32 -3 3 -8 -3 -13 -14
-13 -12 0 -15 4 -9 10 14 14 12 29 -2 19 -16 -10 -108 -11 -108 -1 0 4 -11 3
-25 -2 -14 -5 -25 -7 -25 -4 0 2 -9 0 -20 -6 -16 -9 -19 -8 -13 6 5 12 3 15
-6 9 -19 -11 -111 -14 -111 -3 0 5 -15 -1 -32 -13 -27 -19 -30 -20 -18 -4 14
17 13 18 -2 12 -11 -4 -18 -2 -18 5 0 6 -9 3 -20 -7 -11 -10 -23 -15 -27 -12
-3 4 0 7 8 8 8 1 3 4 -11 8 -14 4 -30 4 -37 -1 -7 -6 -17 -7 -23 -3 -15 9
-135 9 -149 1 -6 -4 -11 -1 -11 6 0 10 -2 10 -9 -1 -6 -9 -10 -10 -16 -2 -5 9
-10 9 -21 0 -11 -9 -14 -9 -14 0 0 7 -5 9 -11 5 -17 -10 -89 -13 -89 -4 0 12
329 200 350 200 7 0 43 17 79 38 40 23 82 39 106 40 21 2 41 5 44 7 6 7 4 7
52 -14z m-316 -30 c-3 -6 -20 -17 -38 -26 -35 -17 -23 -1 15 20 30 17 30 17
23 6z m-78 -60 c1 -10 -6 -22 -15 -25 -16 -5 -28 -12 -112 -62 -79 -47 -130
-75 -130 -70 0 3 19 16 43 30 23 14 35 26 27 26 -13 0 -13 2 -1 9 8 5 20 7 27
4 7 -3 23 2 36 11 15 11 18 16 7 16 -8 0 -20 -5 -27 -12 -7 -7 -12 -8 -12 -2
0 14 48 36 52 24 2 -5 18 -2 36 7 21 10 29 19 22 23 -9 5 -9 9 -1 14 6 4 11 3
11 -3 0 -6 8 -7 17 -4 12 5 13 8 4 11 -11 4 -11 6 0 13 8 5 14 9 14 9 1 0 1
-9 2 -19z m-247 -16 c-7 -8 -17 -15 -23 -15 -6 0 -2 7 9 15 25 19 30 19 14 0z
m175 -15 c-3 -5 -12 -10 -18 -10 -7 0 -6 4 3 10 19 12 23 12 15 0z m-150 -59
c-10 -18 -94 -70 -89 -56 3 7 21 21 39 29 19 9 37 21 40 26 3 6 8 10 11 10 3
0 3 -4 -1 -9z m-59 -86 c-11 -8 -25 -15 -30 -15 -6 1 0 7 14 15 32 19 40 18
16 0z m824 -19 c0 -3 -4 -8 -10 -11 -5 -3 -10 -1 -10 4 0 6 5 11 10 11 6 0 10
-2 10 -4z m-1200 -146 c0 -5 -5 -10 -11 -10 -5 0 -7 5 -4 10 3 6 8 10 11 10 2
0 4 -4 4 -10z m520 -24 c0 -2 -7 -7 -16 -10 -8 -3 -12 -2 -9 4 6 10 25 14 25
6z m875 -16 c-3 -5 -12 -10 -18 -10 -7 0 -6 4 3 10 19 12 23 12 15 0z"/>
</g>
</svg>
